# xmcd CD database file
#
# Track frame offsets:
#	150
#	17271
#	37832
#	56950
#	74444
#	92820
#	110213
#	126580
#	144240
#	161294
#	181873
#	198113
#	219149
#	231625
#	241675
#	255302
#	283139
#
# Disc length: 4092 seconds
#
# Revision: 0
# Processed by: cddbd v1.5.1PL2 Copyright (c) Steve Scherf et al.
# Submitted via: CDex 1.51
#
DISCID=eb0ffa11
DTITLE=Voices In Time - One Two 1234
DYEAR=2005
DGENRE=Jazz
TTITLE0=Let Me Entertain You
TTITLE1=Nothing's Gonna Change My Love For You
TTITLE2=Never Forget
TTITLE3=Afro Blue
TTITLE4=Come What May
TTITLE5=Acapella in Acapulco
TTITLE6=How Deep Is Your Love
TTITLE7=Don't You Worry 'bout A Thing
TTITLE8=Loves Day
TTITLE9=How You Come It's So Hard To Be The Way You Are
TTITLE10=zu spät
TTITLE11=Stolen Moments
TTITLE12=One Hand, One Heart
TTITLE13=herzekrank
TTITLE14=Der Rattenfänger
TTITLE15=Begehre nie
TTITLE16=Die eine Klage
EXTD=YEAR: 2005
EXTT0=
EXTT1=
EXTT2=
EXTT3=
EXTT4=
EXTT5=
EXTT6=
EXTT7=
EXTT8=
EXTT9=
EXTT10=
EXTT11=
EXTT12=
EXTT13=
EXTT14=
EXTT15=
EXTT16=
PLAYORDER=
